<svg width="177" height="243" viewBox="0 0 177 243" fill="none" xmlns="http://www.w3.org/2000/svg">
<g id="BIKEedmonton 1">
<path id="Vector" d="M85.5499 20.5908H91.5974L97.6449 20.8828L103.545 21.467L109.297 22.3432L113.427 23.2194L117.852 24.3876L123.162 26.14L127.44 27.8924L130.98 29.6448L133.487 31.1052L135.257 32.2735L137.322 33.7338L139.682 35.6322L140.862 36.6545L142.78 38.4069L144.697 40.4513L146.32 42.4958L147.942 44.6863L149.86 47.753L151.04 50.0896L152.22 52.5721L153.4 55.6388L154.58 59.7278L155.465 64.2548L155.907 68.0517L156.055 70.0962V173.342L155.612 178.015L154.875 182.25L154.137 185.171L152.515 189.99L151.187 192.91L150.007 195.247L148.532 197.73L146.762 200.212L145.582 201.672L143.96 203.571L142.19 205.469L140.42 207.076L138.797 208.39L136.142 210.434L132.897 212.479L130.242 213.939L126.997 215.546L123.015 217.152L117.705 218.904L113.722 219.927L108.855 220.949L103.102 221.825L96.4649 222.555L92.4824 222.847H83.9274L77.5849 222.263L71.5374 221.533L67.2599 220.803L63.1299 219.927L58.7049 218.758L54.2799 217.298L50.2974 215.692L47.7899 214.523L44.5449 212.771L41.7424 211.019L39.6774 209.558L38.2024 208.39L36.1374 206.638L35.1049 205.615L34.3674 205.031L33.3349 203.863L31.7124 202.111L29.7949 199.628L28.3199 197.438L26.9924 195.247L25.8124 192.91L24.4849 189.99L23.4524 187.215L22.4199 183.564L21.6824 180.059L21.0924 175.678L20.9449 173.926L20.7974 167.793L20.9449 69.22L21.5349 63.9628L22.4199 59.7278L23.5999 55.6388L25.0749 51.842L26.5499 48.7753L28.4674 45.5625L30.2374 43.0799L31.8599 41.0355L33.3349 39.4291L34.3674 38.2608L35.8424 36.8005L37.0224 35.7783L39.3824 33.8798L42.6274 31.6893L44.5449 30.521L47.1999 29.0607L51.1824 27.1623L55.0174 25.7019L58.9999 24.3876L62.9824 23.3654L66.9649 22.4892L72.2749 21.613L77.4374 21.0289L81.7149 20.7368L85.5499 20.5908Z" fill="#FEFEFE"/>
<path id="Vector_2" d="M84.2227 43.6641H93.9577L99.4152 44.1022L104.283 44.8323L108.413 45.7085L112.543 47.0228L116.23 48.4832L119.328 50.0895L121.54 51.5499L123.31 52.8642L125.08 54.4706L126.85 56.223L128.62 58.5595L129.8 60.604L130.98 63.5246L131.57 66.0072L131.718 67.1755V69.6581L131.275 72.2867L130.685 74.0391L129.8 75.7915L128.325 77.6899L127.145 78.8582L125.67 79.8804L123.163 81.1947L120.95 81.9249L117.853 82.509L115.493 82.8011L116.23 83.3852L118 84.4075L120.508 86.0138L123.015 87.7662L124.49 88.9345L126.408 90.5409L128.62 92.7314L130.39 95.0679L131.718 97.2584L132.75 99.3029L133.783 102.078L134.52 104.852L135.11 108.649L135.258 110.109V112.446L134.815 115.805L133.93 118.871L132.75 121.646L131.275 123.983L129.653 125.881L128.473 127.195L126.85 128.51L124.785 129.97L122.573 131.138L119.623 132.306L116.525 133.037L114.165 133.329H112.1L108.265 133.037L105.315 132.453L101.775 131.284L99.4152 130.116L97.2027 128.802L95.2852 127.195L93.9577 126.027L92.6302 124.421L91.1552 122.376L89.9752 120.186L88.7952 117.119L88.5002 116.243L88.0577 116.827L87.1727 118.871L85.4027 121.792L83.4852 124.275L81.2727 126.611L79.6502 127.925L77.2902 129.532L74.1927 131.138L71.3902 132.16L68.2927 132.891L66.2277 133.183H60.0327L57.2302 132.745L54.2802 131.868L52.2152 130.992L50.0027 129.678L47.9377 128.072L46.3152 126.465L44.5452 123.983L43.3652 121.646L42.4802 119.017L41.8902 115.951L41.7427 114.344V111.57L42.1852 108.503L43.0702 105.728L44.3977 103.246L45.5777 101.785L46.9052 100.325L48.8227 98.8648L50.5927 97.8425L52.9527 96.9663L55.1652 96.5282H58.1152L59.8852 96.8203L61.3602 97.4044L61.8027 97.6965L60.9177 98.4267L60.1802 99.595L59.7377 100.909L59.5902 101.639V103.392L60.0327 105.144L60.9177 106.605L61.5077 107.335L62.8352 108.211L64.3102 108.795H67.5552L69.9152 108.065L72.1277 106.897L73.6027 105.728L74.6352 104.706L75.9627 102.808L77.4377 100.033L78.7652 96.5282L80.0927 92.0012L82.6002 81.4868L83.9277 76.5216L85.6977 71.2644L86.8777 68.4898L88.2052 66.2993L89.8277 64.2548L91.4502 62.6484L93.5152 61.1881L95.8752 60.0198L97.7927 59.4357L100.3 58.9976L102.07 58.8516H104.578L105.61 58.9976L105.463 59.5817L103.988 60.604L102.808 61.6262L102.66 61.9183H102.365L102.07 62.5024L100.743 64.2548L99.2677 67.0294L98.0877 70.5343L97.2027 74.4772L96.4652 79.1502L95.1377 89.6647L94.1052 96.8203L93.9577 97.4044L96.3177 96.2362L98.6777 95.506L99.4152 95.36H103.693L105.905 96.0901L107.38 96.9663L108.56 98.2807L108.708 98.8648L106.938 100.179L106.348 100.471L106.053 101.055L105.315 102.224L105.02 102.954V105.144L105.758 106.897L107.233 108.503L108.708 109.379L110.035 109.817L111.068 109.963H112.543L114.903 109.379L116.525 108.503L118 107.043L118.885 105.29L119.328 103.538V100.179L118.738 97.8425L118 96.0901L116.673 94.0457L114.903 92.0012L113.28 90.5409L110.92 88.7885L108.413 86.89L106.495 85.2837L104.873 83.9694L103.25 82.363L101.775 80.4645L100.89 78.7121L101.038 78.5661H106.643L108.708 78.274L111.068 77.5439L113.28 76.3756L115.05 74.7692L116.083 73.3089L116.968 71.5565L117.558 69.6581L117.853 67.1755V65.8612L117.558 64.1088L116.673 61.7722L115.788 60.3119L114.46 58.5595L112.248 56.369L109.74 54.6166L107.38 53.3023L104.725 52.134L101.038 50.9657L97.3502 50.2356L93.8102 49.7975L89.8277 49.6514L85.2552 49.9435L81.8627 50.5276L78.3227 51.5499L75.9627 52.5721L73.8977 53.8864L71.9802 55.4928L70.5052 57.5373L69.7677 59.1436L69.4727 60.0198V63.5246L70.0627 65.131L70.9477 66.4453L71.8327 67.1755L73.1602 67.7596L73.7502 67.9056H76.5527L79.2077 67.3215L80.5352 66.8834L80.2402 68.1977L79.2077 71.2644L77.8802 74.0391L76.2577 76.3756L74.6352 78.128L73.4552 79.2963L71.2427 80.7566L68.8827 81.9249L66.5227 82.655L63.7202 83.0932H61.5077L58.2627 82.655L55.7552 81.9249L53.3952 80.7566L51.3302 79.4423L49.5602 77.8359L48.2327 76.2296L47.0527 74.1851L46.3152 72.2867L45.8727 70.2422L45.7252 69.0739V66.4453L46.1677 63.5246L46.9052 61.0421L48.2327 58.2674L49.7077 56.223L51.3302 54.3245L52.9527 52.8642L55.3127 51.1118L58.1152 49.5054L61.2127 48.0451L64.9002 46.7308L68.5877 45.7085L73.7502 44.6863L78.1752 44.1022L84.2227 43.6641Z" fill="#211E20"/>
<path id="Vector_3" d="M85.5499 20.5908H91.5974L97.6449 20.8828L103.545 21.467L109.297 22.3432L113.427 23.2194L117.852 24.3876L123.162 26.14L127.44 27.8924L130.98 29.6448L133.487 31.1052L135.257 32.2735L137.322 33.7338L139.682 35.6322L140.862 36.6545L142.78 38.4069L144.697 40.4513L146.32 42.4958L147.942 44.6863L149.86 47.753L151.04 50.0896L152.22 52.5721L153.4 55.6388L154.58 59.7278L155.465 64.2548L155.907 68.0517L156.055 70.0962V173.342L155.612 178.015L154.875 182.25L154.137 185.171L152.515 189.99L151.187 192.91L150.007 195.247L148.532 197.73L146.762 200.212L145.582 201.672L143.96 203.571L142.19 205.469L140.42 207.076L138.797 208.39L136.142 210.434L132.897 212.479L130.242 213.939L126.997 215.546L123.015 217.152L117.705 218.904L113.722 219.927L108.855 220.949L103.102 221.825L96.4649 222.555L92.4824 222.847H83.9274L77.5849 222.263L71.5374 221.533L67.2599 220.803L63.1299 219.927L58.7049 218.758L54.2799 217.298L50.2974 215.692L47.7899 214.523L44.5449 212.771L41.7424 211.019L39.6774 209.558L38.2024 208.39L36.1374 206.638L35.1049 205.615L34.3674 205.031L33.3349 203.863L31.7124 202.111L29.7949 199.628L28.3199 197.438L26.9924 195.247L25.8124 192.91L24.4849 189.99L23.4524 187.215L22.4199 183.564L21.6824 180.059L21.0924 175.678L20.9449 173.926L20.7974 167.793L20.9449 69.22L21.5349 63.9628L22.4199 59.7278L23.5999 55.6388L25.0749 51.842L26.5499 48.7753L28.4674 45.5625L30.2374 43.0799L31.8599 41.0355L33.3349 39.4291L34.3674 38.2608L35.8424 36.8005L37.0224 35.7783L39.3824 33.8798L42.6274 31.6893L44.5449 30.521L47.1999 29.0607L51.1824 27.1623L55.0174 25.7019L58.9999 24.3876L62.9824 23.3654L66.9649 22.4892L72.2749 21.613L77.4374 21.0289L81.7149 20.7368L85.5499 20.5908ZM83.9274 27.3083L77.2899 27.7464L72.2749 28.3305L66.5224 29.3528L61.8024 30.521L56.4924 32.2735L52.9524 33.7338L50.1499 35.0481L47.0524 36.8005L44.2499 38.6989L42.1849 40.3053L39.9724 42.2037L38.3499 43.8101L37.3174 44.9784L35.8424 46.7308L33.4824 50.2356L32.4499 51.988L30.6799 55.7849L29.3524 59.7278L28.6149 62.7945L28.0249 66.4453L27.5824 71.4105V172.028L28.0249 176.993L28.6149 180.498L29.4999 184.002L30.8274 187.799L32.0074 190.428L33.9249 193.787L35.6949 196.269L37.0224 197.876L38.4974 199.482L38.6449 199.774H38.9399L39.2349 200.358L41.4474 202.403L43.0699 203.717L45.7249 205.615L48.6749 207.368L52.0674 209.12L55.4599 210.581L59.1474 211.895L62.5399 212.917L66.8174 213.939L71.6849 214.816L76.2574 215.4L81.4199 215.838L84.9599 215.984H91.3024L97.6449 215.692L103.25 215.108L108.56 214.231L112.69 213.355L117.41 212.041L121.54 210.581L125.522 208.828L128.62 207.222L130.98 205.761L133.487 204.009L134.962 202.841L137.912 200.212L139.977 198.022L141.895 195.539L143.96 192.326L145.14 190.136L146.762 186.193L147.795 182.98L148.68 178.891L149.122 175.678L149.417 171.005V71.9946L149.122 67.7596L148.532 63.6707L147.795 60.4579L146.91 57.5373L145.73 54.4706L143.96 50.9658L142.19 48.1911L140.42 45.8546L138.502 43.6641L136.585 41.7656L134.962 40.4513L133.192 38.991L130.095 36.9465L126.997 35.1941L124.637 34.0259L121.245 32.5655L117.115 31.1052L112.837 29.9369L109.002 29.0607L103.545 28.1845L99.7099 27.7464L96.1699 27.4543L93.3674 27.3083H83.9274Z" fill="#211E20"/>
<path id="Vector_4" d="M87.3201 189.26H89.6801L91.1551 189.698L92.6301 190.72L93.5151 191.888L94.1051 193.057L94.4001 195.247L94.1051 196.999L93.5151 198.168L92.3351 199.482L90.8601 200.358L89.3851 200.796H87.6151L86.1401 200.358L84.5176 199.336L83.3376 197.876L82.7476 196.415L82.6001 194.663L82.8951 193.057L83.6326 191.596L84.5176 190.574L85.8451 189.698L87.3201 189.26Z" fill="#211E20"/>
<g id="Group 1">
<path id="Vector_5" d="M44.3975 141.507H56.935L60.0325 141.799L62.6875 142.383L65.0475 143.551L66.08 144.573L66.965 146.326L67.1125 147.056V148.516L66.5225 150.415L65.49 151.729L63.5725 152.897L62.6875 153.189H61.95V153.481L63.425 153.773L65.49 154.796L66.67 156.11L67.4075 157.57L67.7025 158.593V161.221L67.1125 163.12L65.9325 164.726L64.605 165.602L63.13 166.332L60.475 166.917L57.6725 167.209H44.545L44.3975 167.063V141.507Z" fill="#211E20"/>
<path id="Vector_6" d="M83.3374 141.507H87.4674V153.481L88.3524 152.897L90.4174 150.999L91.5974 149.977L92.6299 148.954L93.8099 147.932L97.3499 144.719L98.8249 143.405L100.595 141.799L101.037 141.507H106.2L105.315 142.529L103.692 143.843L102.07 145.304L100.89 146.326L99.2674 147.786L98.0874 148.808L96.6124 150.123L94.9899 151.437L94.8424 152.021L96.9074 154.212L98.2349 155.818L100.005 157.716L101.037 158.885L102.807 160.929L104.135 162.389L105.167 163.558L106.937 165.602L107.97 166.77L107.822 167.209H103.397L101.775 165.602L100.447 163.996L98.6774 162.097L97.3499 160.491L95.5799 158.593L94.5474 157.424L93.0724 155.818L92.0399 154.504L91.3024 154.65L89.0899 156.694L87.7624 157.716L87.6149 158.008L87.4674 165.602L87.3199 167.063L87.1724 167.209H83.3374L83.1899 166.917V141.653L83.3374 141.507Z" fill="#211E20"/>
<path id="Vector_7" d="M112.1 141.507H132.603V144.135L132.308 144.281H116.525L116.378 152.897H132.603V155.672L116.525 155.818V164.288L132.603 164.434V166.917L132.455 167.209H112.1V141.507Z" fill="#211E20"/>
<path id="Vector_8" d="M48.6748 155.38H57.8198L59.7373 155.672L61.0648 156.256L61.9498 156.84L62.8348 157.862L63.2773 159.177V160.637L62.6873 162.243L61.9498 163.12L61.0648 163.704L59.1473 164.288L57.8198 164.434H48.6748L48.5273 164.288V160.345L48.6748 155.38Z" fill="#FEFEFE"/>
<path id="Vector_9" d="M48.6748 144.281H57.5248L59.2948 144.573L60.6223 145.157L61.8023 146.18L62.3923 147.056L62.5398 147.64V149.392L62.0973 150.415L61.3598 151.291L60.1798 152.021L57.8198 152.605L53.8373 152.751H49.1173L48.6748 152.605L48.5273 151.583L48.6748 144.281Z" fill="#FEFEFE"/>
<path id="Vector_10" d="M72.8652 141.507H76.9952L77.1427 143.113L76.9952 167.063L76.8477 167.209H73.0127L72.8652 167.063V141.507Z" fill="#211E20"/>
</g>
<g id="Group 2">
<path id="Vector_11" d="M62.8352 169.983H63.4252V180.79H62.2452L61.9502 180.352V179.183L60.7702 180.206L59.7377 180.79L59.1477 180.936H57.5252L56.1977 180.352L55.3127 179.621L54.5752 178.161L54.4277 176.701L54.7227 175.386L55.6077 174.072L56.4927 173.342L57.5252 173.05H59.4427L61.2127 173.926V170.421L61.6552 170.129L62.8352 169.983Z" fill="#211E20"/>
<path id="Vector_12" d="M85.8452 173.05H88.0577L89.6802 173.488L91.1552 174.802L91.7452 175.97V178.161L91.0077 179.329L89.8277 180.351L88.6477 180.79L87.7627 180.936H86.1402L84.9602 180.644L83.6327 179.913L82.7477 178.891L82.3052 177.577V176.263L82.8952 174.802L83.9277 173.78L85.1077 173.196L85.8452 173.05Z" fill="#211E20"/>
<path id="Vector_13" d="M116.378 173.05H118.738L120.36 173.634L121.54 174.656L122.13 175.824L122.278 176.409V177.577L121.835 178.745L121.245 179.621L120.065 180.498L118.295 180.936H116.525L115.05 180.498L113.87 179.767L113.133 178.745L112.838 177.869V176.117L113.28 174.948L114.165 173.926L115.64 173.196L116.378 173.05Z" fill="#211E20"/>
<path id="Vector_14" d="M70.0626 173.05H72.1276L73.1601 173.488L73.8976 174.656L74.1926 174.802L74.4876 174.072L75.3726 173.342L76.1101 173.05H78.1751L79.0601 173.488L79.7976 174.218L80.0926 174.948V180.79H77.8801V176.263L77.7326 175.094L77.1426 174.656H75.6676L74.7826 175.24L74.3401 175.97L74.1926 180.79H72.1276L71.9801 179.329V176.117L71.6851 175.094L71.2426 174.656H69.6201L68.5876 175.532L68.2926 176.409V180.79H66.0801V173.342L66.2276 173.196H67.1126L67.5551 173.488L67.8501 174.802L69.3251 173.342L70.0626 173.05Z" fill="#211E20"/>
<path id="Vector_15" d="M46.9052 173.05H49.5602L50.8877 173.488L52.0677 174.656L52.6577 176.263V177.139H45.7252L46.3152 178.599L47.0527 179.183L48.6752 179.475L49.7077 179.037L50.8877 177.869L52.6577 178.161V178.891L51.7727 179.913L50.0027 180.79L49.2652 180.936H47.2002L45.7252 180.498L44.3977 179.475L43.6602 178.161L43.5127 176.701L43.8077 175.386L44.3977 174.51L45.5777 173.488L46.9052 173.05Z" fill="#211E20"/>
<path id="Vector_16" d="M128.325 173.05H130.833L131.865 173.488L132.603 174.072L133.045 174.948L133.193 175.678V180.351L133.045 180.79H130.98L130.833 180.644L130.685 175.386L130.095 174.802L128.62 174.51L127.44 175.094L126.85 175.824L126.703 176.117L126.555 180.79H124.343V173.196H125.523L125.965 173.926L126.26 174.802L126.85 174.072L127.735 173.342L128.325 173.05Z" fill="#211E20"/>
<path id="Vector_17" d="M98.0875 173.05H100.3L101.628 173.634L102.365 174.51L102.66 175.386L102.808 177.431L102.66 180.79H100.448L100.3 175.386L99.5625 174.656H97.645L96.76 175.24L96.3175 176.117L96.17 180.79H93.9575V173.342L94.105 173.196L95.285 173.342L95.58 174.364V174.948H95.875V174.51L97.055 173.488L98.0875 173.05Z" fill="#211E20"/>
<path id="Vector_18" d="M107.38 170.567H107.97L108.118 173.05L111.363 173.196L111.51 174.364L111.363 174.51H107.97L108.118 178.745L108.56 179.329H109.888L111.068 178.599H111.363L111.51 180.06L110.035 180.79L109.445 180.936H107.823L106.643 180.352L106.053 179.621L105.758 178.307L105.61 174.656L104.135 174.51L103.988 174.364V173.342L104.135 173.196L105.905 173.05L105.758 171.736L107.38 170.567Z" fill="#211E20"/>
<path id="Vector_19" d="M58.2626 174.51H60.0326L60.9176 175.094L61.5076 175.824L61.6551 176.263V177.723L61.0651 178.745L60.3276 179.329L59.5901 179.621L58.2626 179.475L57.2301 178.745L56.7876 177.723V176.263L57.2301 175.386L58.2626 174.51Z" fill="#FEFEFE"/>
<path id="Vector_20" d="M86.14 174.51H88.0575L89.2375 175.532L89.5325 176.701L89.385 178.015L88.795 178.891L87.7625 179.475H86.14L85.255 178.891L84.8125 178.307L84.665 177.869V175.97L85.255 175.094L86.14 174.51Z" fill="#FEFEFE"/>
<path id="Vector_21" d="M116.525 174.51H118.443L119.623 175.532L119.918 176.117V177.869L119.328 178.745L118.59 179.329L118.295 179.475H116.673L115.788 178.891L115.198 178.015L115.05 177.577V176.409L115.64 175.24L116.525 174.51Z" fill="#FEFEFE"/>
<path id="Vector_22" d="M47.7901 174.364L49.1176 174.51L50.2976 175.533V175.971L48.3801 176.117H45.8726L46.0201 175.386L46.9051 174.656L47.7901 174.364Z" fill="#FEFEFE"/>
</g>
</g>
</svg>
