<svg width="25" height="25" viewBox="0 0 25 25" fill="none" xmlns="http://www.w3.org/2000/svg">
<g id="instagram">
<path id="Vector" d="M17.5 2.5H7.5C4.73858 2.5 2.5 4.73858 2.5 7.5V17.5C2.5 20.2614 4.73858 22.5 7.5 22.5H17.5C20.2614 22.5 22.5 20.2614 22.5 17.5V7.5C22.5 4.73858 20.2614 2.5 17.5 2.5Z" stroke="#1F1F1F" stroke-width="2" stroke-linecap="round" stroke-linejoin="round"/>
<path id="Vector_2" d="M16.5002 11.87C16.6236 12.7022 16.4815 13.5522 16.094 14.299C15.7065 15.0458 15.0933 15.6514 14.3418 16.0297C13.5903 16.4079 12.7386 16.5396 11.908 16.4059C11.0773 16.2723 10.31 15.8801 9.71503 15.2852C9.12011 14.6902 8.72793 13.9229 8.59426 13.0922C8.4606 12.2615 8.59226 11.4099 8.97052 10.6584C9.34878 9.90685 9.95438 9.29374 10.7012 8.90624C11.448 8.51874 12.2979 8.37658 13.1302 8.5C13.9791 8.62588 14.765 9.02146 15.3719 9.6283C15.9787 10.2351 16.3743 11.0211 16.5002 11.87Z" stroke="#1F1F1F" stroke-width="2" stroke-linecap="round" stroke-linejoin="round"/>
<path id="Vector_3" d="M18 7H18.01" stroke="#1F1F1F" stroke-width="2" stroke-linecap="round" stroke-linejoin="round"/>
</g>
</svg>
