<svg width="70" height="70" viewBox="0 0 70 70" fill="none" xmlns="http://www.w3.org/2000/svg">
<g id="Frame">
<path id="Vector" d="M42.8749 18.375C42.3405 18.9202 42.0412 19.6532 42.0412 20.4167C42.0412 21.1801 42.3405 21.9131 42.8749 22.4583L47.5416 27.125C48.0868 27.6594 48.8198 27.9587 49.5833 27.9587C50.3467 27.9587 51.0797 27.6594 51.6249 27.125L62.6208 16.1292C64.0874 19.3701 64.5314 22.9811 63.8938 26.4808C63.2561 29.9806 61.567 33.2029 59.0516 35.7183C56.5362 38.2337 53.3139 39.9228 49.8141 40.5605C46.3144 41.1982 42.7034 40.7541 39.4624 39.2875L19.3083 59.4417C18.148 60.602 16.5742 61.2538 14.9333 61.2538C13.2923 61.2538 11.7186 60.602 10.5583 59.4417C9.39796 58.2813 8.74609 56.7076 8.74609 55.0667C8.74609 53.4257 9.39796 51.852 10.5583 50.6917L30.7124 30.5375C29.2458 27.2965 28.8018 23.6856 29.4394 20.1858C30.0771 16.6861 31.7662 13.4638 34.2816 10.9484C36.7971 8.43292 40.0194 6.74382 43.5191 6.10616C47.0188 5.4685 50.6298 5.91256 53.8708 7.37916L42.9041 18.3458L42.8749 18.375Z" stroke="#003C7A" stroke-width="6" stroke-linecap="round" stroke-linejoin="round"/>
</g>
</svg>
