<svg width="25" height="25" viewBox="0 0 25 25" fill="none" xmlns="http://www.w3.org/2000/svg">
<g id="youtube">
<rect width="24" height="24" transform="translate(0.5 0.5)" fill="white"/>
<path id="Vector" d="M23.0401 6.92C22.9213 6.44541 22.6794 6.01057 22.3387 5.65941C21.9981 5.30824 21.5708 5.05318 21.1001 4.92C19.3801 4.5 12.5001 4.5 12.5001 4.5C12.5001 4.5 5.62008 4.5 3.90008 4.96C3.42933 5.09318 3.00206 5.34824 2.66143 5.69941C2.3208 6.05057 2.07887 6.48541 1.96008 6.96C1.6453 8.70556 1.49132 10.4763 1.50008 12.25C1.48886 14.037 1.64285 15.8213 1.96008 17.58C2.09104 18.0398 2.33839 18.4581 2.67823 18.7945C3.01806 19.1308 3.4389 19.3738 3.90008 19.5C5.62008 19.96 12.5001 19.96 12.5001 19.96C12.5001 19.96 19.3801 19.96 21.1001 19.5C21.5708 19.3668 21.9981 19.1118 22.3387 18.7606C22.6794 18.4094 22.9213 17.9746 23.0401 17.5C23.3524 15.7676 23.5064 14.0103 23.5001 12.25C23.5113 10.463 23.3573 8.6787 23.0401 6.92Z" fill="#1F1F1F"/>
<path id="Vector_2" d="M10.25 15.52L16 12.25L10.25 8.97998V15.52Z" fill="white"/>
</g>
</svg>
